<svg width="96" height="96" viewBox="0 0 96 96" fill="none" xmlns="http://www.w3.org/2000/svg">
  <defs>
    <linearGradient id="grad" x1="10" y1="12" x2="86" y2="84" gradientUnits="userSpaceOnUse">
      <stop stop-color="#3577F0"/>
      <stop offset="1" stop-color="#7AB8FF"/>
    </linearGradient>
  </defs>
  <rect x="8" y="8" width="80" height="80" rx="18" fill="url(#grad)"/>
  <path d="M32 28h32c3.5 0 6.5 2.7 6.5 6v28c0 3.3-3 6-6.5 6h-20l-10.4 8.6c-1.2 1-3.1.1-3.1-1.5V34c0-3.3 3-6 6.5-6Z" fill="#F8FBFF"/>
  <path d="M36 36h24c1.1 0 2 .9 2 2v4c0 1.1-.9 2-2 2H36c-1.1 0-2-.9-2-2v-4c0-1.1.9-2 2-2Zm0 16h14c1.1 0 2 .9 2 2v4c0 1.1-.9 2-2 2H36c-1.1 0-2-.9-2-2v-4c0-1.1.9-2 2-2Z" fill="#3577F0"/>
</svg>
